<svg xmlns="http://www.w3.org/2000/svg" width="19" height="19" viewBox="0 0 19 19">
    <g fill="none" fill-rule="evenodd">
        <path fill="#111" fill-rule="nonzero" d="M9.38.25C4.206.25 0 3.663 0 7.87c0 3.755 3.327 6.91 7.834 7.511.3.065.73.194.816.473.085.236.064.6.021.858 0 0-.107.666-.129.794-.043.236-.193.923.816.515 1.009-.429 5.409-3.176 7.362-5.451 1.373-1.524 2.039-3.026 2.039-4.7 0-4.207-4.207-7.62-9.38-7.62zM6.01 9.415v.665c0 .107-.065.193-.172.193H3.219a.305.305 0 0 1-.128-.043.305.305 0 0 1-.043-.128V6.024c0-.108.086-.194.193-.194h.665c.108 0 .193.086.193.194v3.24h1.782c.107 0 .193.086.129.15zm1.652.665c0 .086-.086.172-.193.172h-.665c-.108 0-.193-.065-.193-.172V6.002c0-.086.085-.172.193-.172h.665c.107 0 .193.086.193.172v4.078zm4.593 0c0 .086-.085.172-.193.172H11.311c-.021 0-.021-.022-.043-.043L9.401 7.676v2.426c0 .085-.086.171-.193.171h-.666c-.107 0-.193-.064-.193-.171V6.024c0-.086.086-.172.193-.172h.687l.022.021c.021 0 .021.022.021.022l1.867 2.532V6.002c0-.086.086-.172.194-.172h.665c.107 0 .193.086.257.172v4.078zm3.542-3.413c0 .108-.065.194-.172.194v-.108h-1.781v.687h1.781c.086 0 .172.086.172.193V8.3c0 .107-.065.193-.172.193h-1.781v.687h1.781c.086 0 .172.085.172.193v.665c0 .107-.065.193-.172.193h-2.618a.305.305 0 0 1-.13-.043.305.305 0 0 1-.042-.128V5.98c0-.043.021-.086.043-.13a.305.305 0 0 1 .129-.042h2.618c.086 0 .172.086.172.193v.665z"/>
        <path d="M0-1h20v20H0z"/>
    </g>
</svg>
