<svg xmlns="http://www.w3.org/2000/svg" width="20" height="18" viewBox="0 0 20 18">
    <g fill="none" fill-rule="evenodd">
        <g fill="#111" fill-rule="nonzero">
            <path d="M7.458 8.452h1.088l-.544-1.546z"/>
            <path d="M10 .325C4.784.325.556 3.658.556 7.77c0 2.66 1.768 4.995 4.427 6.31-.145.499-.93 3.21-.961 3.423 0 0-.02.16.084.22.07.036.152.04.226.014.297-.042 3.45-2.253 3.995-2.634.554.077 1.113.115 1.673.114 5.216 0 9.444-3.334 9.444-7.447 0-4.113-4.228-7.446-9.444-7.446zm-4.674 6.29c-.012 1.054.009 2.162-.008 3.199-.006.331-.196.43-.454.525a.17.17 0 0 1-.091.006c-.295-.058-.53-.163-.538-.53-.02-1.037.007-2.146-.008-3.2-.25-.01-.606.01-.837 0-.322-.02-.545-.225-.531-.53.013-.303.176-.522.536-.528a99.784 99.784 0 0 1 2.76 0c.362.006.524.226.535.529.01.303-.209.508-.53.53-.228.01-.583-.01-.834 0zm4.577 3.674a.84.84 0 0 1-.347.075c-.227 0-.4-.09-.454-.24l-.273-.707H7.171l-.272.706c-.053.148-.226.241-.454.241a.832.832 0 0 1-.346-.075c-.151-.07-.295-.26-.13-.774l1.307-3.43a.817.817 0 0 1 .726-.539c.328.02.613.23.727.539l1.302 3.429c.166.515.022.71-.128.775zm2.753 0h-1.748a.512.512 0 0 1-.522-.5V6.091a.557.557 0 0 1 1.112 0v3.201h1.158a.5.5 0 1 1 0 1v-.003zm4.268-.41a.545.545 0 0 1-.977.253L14.67 8.441l-.19.189v1.188a.545.545 0 1 1-1.09 0V6.095a.545.545 0 0 1 1.09 0v1.168L16 5.743c.081-.08.19-.124.303-.122a.552.552 0 0 1 .536.507.427.427 0 0 1-.119.331l-1.244 1.242 1.341 1.777c.087.115.125.26.105.403l.002-.003z"/>
        </g>
        <path d="M0-1h20v20H0z"/>
    </g>
</svg>
