<?xml version="1.0" encoding="utf-8"?>
<!-- Generator: Adobe Illustrator 24.2.1, SVG Export Plug-In . SVG Version: 6.00 Build 0)  -->
<svg version="1.1" id="Layer_1" xmlns="http://www.w3.org/2000/svg" xmlns:xlink="http://www.w3.org/1999/xlink" x="0px" y="0px"
	 viewBox="0 0 500 500" style="enable-background:new 0 0 500 500;" xml:space="preserve">
<style type="text/css">
	.st0{fill:#FFFFFF;}
</style>
<path class="st0" d="M492.65,452.82L348.06,308.24c55.79-74.86,49.71-181.28-18.26-249.25c-74.66-74.65-195.71-74.65-270.37,0
	c-74.66,74.66-74.66,195.71,0,270.37c67.97,67.97,174.39,74.05,249.25,18.26L453.27,492.2c8.29,8.29,23.23,6.79,33.36-3.34
	l2.68-2.68C499.45,476.05,500.94,461.12,492.65,452.82z M106.08,282.72c-48.9-48.9-48.9-128.19,0-177.08
	c48.9-48.9,128.18-48.9,177.08,0c48.9,48.89,48.9,128.18,0,177.08S154.98,331.62,106.08,282.72z"/>
</svg>
